<svg width="79" height="12" viewBox="0 0 79 12" fill="none" xmlns="http://www.w3.org/2000/svg">
<path d="M3.972 11.168C3.46 11.168 2.996 11.12 2.58 11.024C2.164 10.928 1.804 10.784 1.5 10.592C1.196 10.392 0.956 10.14 0.78 9.836C0.604 9.532 0.5 9.18 0.468 8.78L2.16 8.216C2.184 8.552 2.28 8.832 2.448 9.056C2.616 9.28 2.84 9.448 3.12 9.56C3.408 9.664 3.728 9.716 4.08 9.716C4.416 9.716 4.696 9.676 4.92 9.596C5.152 9.508 5.324 9.4 5.436 9.272C5.556 9.136 5.616 8.992 5.616 8.84C5.616 8.664 5.54 8.52 5.388 8.408C5.236 8.288 5.028 8.188 4.764 8.108C4.5 8.02 4.192 7.936 3.84 7.856C3.44 7.76 3.048 7.656 2.664 7.544C2.28 7.432 1.932 7.288 1.62 7.112C1.308 6.928 1.06 6.696 0.876 6.416C0.7 6.128 0.612 5.768 0.612 5.336C0.612 4.848 0.736 4.424 0.984 4.064C1.232 3.704 1.596 3.424 2.076 3.224C2.556 3.016 3.148 2.912 3.852 2.912C4.548 2.912 5.14 3.012 5.628 3.212C6.116 3.412 6.492 3.692 6.756 4.052C7.02 4.404 7.164 4.816 7.188 5.288L5.46 5.78C5.46 5.548 5.42 5.344 5.34 5.168C5.268 4.992 5.164 4.848 5.028 4.736C4.892 4.616 4.724 4.528 4.524 4.472C4.324 4.408 4.096 4.376 3.84 4.376C3.536 4.376 3.276 4.412 3.06 4.484C2.852 4.556 2.696 4.652 2.592 4.772C2.488 4.884 2.436 5.016 2.436 5.168C2.436 5.36 2.516 5.52 2.676 5.648C2.844 5.768 3.068 5.872 3.348 5.96C3.636 6.04 3.952 6.12 4.296 6.2C4.64 6.272 4.996 6.364 5.364 6.476C5.732 6.58 6.076 6.72 6.396 6.896C6.716 7.072 6.972 7.312 7.164 7.616C7.364 7.912 7.464 8.288 7.464 8.744C7.464 9.232 7.332 9.66 7.068 10.028C6.812 10.388 6.424 10.668 5.904 10.868C5.384 11.068 4.74 11.168 3.972 11.168ZM8.72644 11V3.08H10.6584V6.548C11.0504 6.372 11.4144 6.152 11.7504 5.888C12.0864 5.624 12.3824 5.336 12.6384 5.024C12.9024 4.712 13.1184 4.392 13.2864 4.064C13.4624 3.728 13.5904 3.4 13.6704 3.08H15.9024C15.8064 3.448 15.6504 3.824 15.4344 4.208C15.2184 4.584 14.9584 4.948 14.6544 5.3C14.3504 5.644 14.0224 5.952 13.6704 6.224C13.3264 6.496 12.9744 6.712 12.6144 6.872V7.052C12.9824 7.052 13.3064 7.092 13.5864 7.172C13.8744 7.252 14.1264 7.376 14.3424 7.544C14.5664 7.712 14.7584 7.924 14.9184 8.18C15.0864 8.428 15.2304 8.728 15.3504 9.08L16.0344 11H13.8384L13.3944 9.428C13.2984 9.076 13.1704 8.8 13.0104 8.6C12.8504 8.392 12.6384 8.244 12.3744 8.156C12.1104 8.06 11.7704 8.012 11.3544 8.012H10.6584V11H8.72644ZM20.6348 11.168C20.1308 11.168 19.6828 11.116 19.2908 11.012C18.8988 10.916 18.5588 10.772 18.2708 10.58C17.9828 10.388 17.7428 10.156 17.5508 9.884C17.3668 9.612 17.2268 9.308 17.1308 8.972C17.0428 8.628 16.9988 8.256 16.9988 7.856V3.08H18.9428V7.796C18.9428 8.18 19.0028 8.496 19.1228 8.744C19.2428 8.992 19.4268 9.176 19.6748 9.296C19.9228 9.408 20.2388 9.464 20.6228 9.464C21.0068 9.464 21.3228 9.408 21.5708 9.296C21.8188 9.176 22.0028 8.992 22.1228 8.744C22.2428 8.496 22.3028 8.18 22.3028 7.796V3.08H24.2348V7.856C24.2348 8.904 23.9348 9.72 23.3348 10.304C22.7428 10.88 21.8428 11.168 20.6348 11.168ZM29.5441 11.168C28.9201 11.168 28.3601 11.084 27.8641 10.916C27.3681 10.748 26.9441 10.492 26.5921 10.148C26.2481 9.804 25.9841 9.384 25.8001 8.888C25.6241 8.384 25.5361 7.796 25.5361 7.124C25.5361 6.436 25.6281 5.832 25.8121 5.312C25.9961 4.792 26.2601 4.352 26.6041 3.992C26.9561 3.632 27.3681 3.364 27.8401 3.188C28.3121 3.004 28.8361 2.912 29.4121 2.912C29.8681 2.912 30.2841 2.968 30.6601 3.08C31.0441 3.192 31.3761 3.36 31.6561 3.584C31.9361 3.8 32.1521 4.064 32.3041 4.376C32.4641 4.68 32.5481 5.028 32.5561 5.42L30.7681 5.912C30.7681 5.584 30.6961 5.316 30.5521 5.108C30.4161 4.9 30.2401 4.744 30.0241 4.64C29.8161 4.528 29.5881 4.472 29.3401 4.472C29.1401 4.472 28.9321 4.516 28.7161 4.604C28.5081 4.684 28.3161 4.824 28.1401 5.024C27.9641 5.216 27.8241 5.472 27.7201 5.792C27.6161 6.112 27.5641 6.512 27.5641 6.992C27.5641 7.616 27.6521 8.12 27.8281 8.504C28.0041 8.888 28.2481 9.172 28.5601 9.356C28.8721 9.532 29.2161 9.62 29.5921 9.62C30.0081 9.62 30.3281 9.532 30.5521 9.356C30.7841 9.172 30.9481 8.944 31.0441 8.672C31.1401 8.4 31.1921 8.124 31.2001 7.844L32.8801 8.108C32.8721 8.54 32.8081 8.944 32.6881 9.32C32.5681 9.696 32.3761 10.024 32.1121 10.304C31.8561 10.576 31.5161 10.788 31.0921 10.94C30.6681 11.092 30.1521 11.168 29.5441 11.168ZM39.1989 11V3.08H41.1309V11H39.1989ZM34.0389 11V3.08H35.9709V11H34.0389ZM35.2149 7.784V6.224H39.9789V7.784H35.2149ZM42.1446 11L44.8326 3.08H47.6646L50.3526 11H48.2406L46.3446 4.592H46.1526L44.2566 11H42.1446ZM43.7406 9.512V8.216H49.0446V9.512H43.7406Z" fill="black"></path>
<path d="M47.7238 0.488049C47.8605 0.24812 48.1658 0.164443 48.4057 0.30115L62.4117 8.28154L61.4365 9.99319C61.2177 10.3771 60.7292 10.511 60.3453 10.2922L47.0344 2.70789C46.7945 2.57118 46.7108 2.26586 46.8475 2.02593L47.7238 0.488049Z" fill="#EE970B"></path>
<path d="M62.3063 8.2524H78.4263C78.7024 8.2524 78.9263 8.47625 78.9263 8.7524V10.5224C78.9263 10.7985 78.7024 11.0224 78.4263 11.0224H63.1063C62.6644 11.0224 62.3063 10.6642 62.3063 10.2224V8.2524Z" fill="#EE970B"></path>
</svg>