<svg width="85" height="9" viewBox="0 0 85 9" fill="none" xmlns="http://www.w3.org/2000/svg">
<path d="M3.972 8.25601C3.46 8.25601 2.996 8.20801 2.58 8.11201C2.164 8.01601 1.804 7.87201 1.5 7.68001C1.196 7.48001 0.956 7.22801 0.78 6.92401C0.604 6.62001 0.5 6.26801 0.468 5.86801L2.16 5.30401C2.184 5.64001 2.28 5.92001 2.448 6.14401C2.616 6.36801 2.84 6.53601 3.12 6.64801C3.408 6.75201 3.728 6.80401 4.08 6.80401C4.416 6.80401 4.696 6.76401 4.92 6.68401C5.152 6.59601 5.324 6.48801 5.436 6.36001C5.556 6.22401 5.616 6.08001 5.616 5.92801C5.616 5.75201 5.54 5.60801 5.388 5.49601C5.236 5.37601 5.028 5.27601 4.764 5.19601C4.5 5.10801 4.192 5.02401 3.84 4.94401C3.44 4.84801 3.048 4.74401 2.664 4.63201C2.28 4.52001 1.932 4.37601 1.62 4.20001C1.308 4.01601 1.06 3.78401 0.876 3.50401C0.7 3.21601 0.612 2.85601 0.612 2.42401C0.612 1.93601 0.736 1.51201 0.984 1.15201C1.232 0.792012 1.596 0.512012 2.076 0.312013C2.556 0.104012 3.148 1.23978e-05 3.852 1.23978e-05C4.548 1.23978e-05 5.14 0.100012 5.628 0.300012C6.116 0.500012 6.492 0.780012 6.756 1.14001C7.02 1.49201 7.164 1.90401 7.188 2.37601L5.46 2.86801C5.46 2.63601 5.42 2.43201 5.34 2.25601C5.268 2.08001 5.164 1.93601 5.028 1.82401C4.892 1.70401 4.724 1.61601 4.524 1.56001C4.324 1.49601 4.096 1.46401 3.84 1.46401C3.536 1.46401 3.276 1.50001 3.06 1.57201C2.852 1.64401 2.696 1.74001 2.592 1.86001C2.488 1.97201 2.436 2.10401 2.436 2.25601C2.436 2.44801 2.516 2.60801 2.676 2.73601C2.844 2.85601 3.068 2.96001 3.348 3.04801C3.636 3.12801 3.952 3.20801 4.296 3.28801C4.64 3.36001 4.996 3.45201 5.364 3.56401C5.732 3.66801 6.076 3.80801 6.396 3.98401C6.716 4.16001 6.972 4.40001 7.164 4.70401C7.364 5.00001 7.464 5.37601 7.464 5.83201C7.464 6.32001 7.332 6.74801 7.068 7.11601C6.812 7.47601 6.424 7.75601 5.904 7.95601C5.384 8.15601 4.74 8.25601 3.972 8.25601ZM8.72644 8.08801V0.168012H10.6584V3.63601C11.0504 3.46001 11.4144 3.24001 11.7504 2.97601C12.0864 2.71201 12.3824 2.42401 12.6384 2.11201C12.9024 1.80001 13.1184 1.48001 13.2864 1.15201C13.4624 0.816013 13.5904 0.488013 13.6704 0.168012H15.9024C15.8064 0.536012 15.6504 0.912012 15.4344 1.29601C15.2184 1.67201 14.9584 2.03601 14.6544 2.38801C14.3504 2.73201 14.0224 3.04001 13.6704 3.31201C13.3264 3.58401 12.9744 3.80001 12.6144 3.96001V4.14001C12.9824 4.14001 13.3064 4.18001 13.5864 4.26001C13.8744 4.34001 14.1264 4.46401 14.3424 4.63201C14.5664 4.80001 14.7584 5.01201 14.9184 5.26801C15.0864 5.51601 15.2304 5.81601 15.3504 6.16801L16.0344 8.08801H13.8384L13.3944 6.51601C13.2984 6.16401 13.1704 5.88801 13.0104 5.68801C12.8504 5.48001 12.6384 5.33201 12.3744 5.24401C12.1104 5.14801 11.7704 5.10001 11.3544 5.10001H10.6584V8.08801H8.72644ZM20.6348 8.25601C20.1308 8.25601 19.6828 8.20401 19.2908 8.10001C18.8988 8.00401 18.5588 7.86001 18.2708 7.66801C17.9828 7.47601 17.7428 7.24401 17.5508 6.97201C17.3668 6.70001 17.2268 6.39601 17.1308 6.06001C17.0428 5.71601 16.9988 5.34401 16.9988 4.94401V0.168012H18.9428V4.88401C18.9428 5.26801 19.0028 5.58401 19.1228 5.83201C19.2428 6.08001 19.4268 6.26401 19.6748 6.38401C19.9228 6.49601 20.2388 6.55201 20.6228 6.55201C21.0068 6.55201 21.3228 6.49601 21.5708 6.38401C21.8188 6.26401 22.0028 6.08001 22.1228 5.83201C22.2428 5.58401 22.3028 5.26801 22.3028 4.88401V0.168012H24.2348V4.94401C24.2348 5.99201 23.9348 6.80801 23.3348 7.39201C22.7428 7.96801 21.8428 8.25601 20.6348 8.25601ZM29.5441 8.25601C28.9201 8.25601 28.3601 8.17201 27.8641 8.00401C27.3681 7.83601 26.9441 7.58001 26.5921 7.23601C26.2481 6.89201 25.9841 6.47201 25.8001 5.97601C25.6241 5.47201 25.5361 4.88401 25.5361 4.21201C25.5361 3.52401 25.6281 2.92001 25.8121 2.40001C25.9961 1.88001 26.2601 1.44001 26.6041 1.08001C26.9561 0.720012 27.3681 0.452013 27.8401 0.276012C28.3121 0.0920124 28.8361 1.23978e-05 29.4121 1.23978e-05C29.8681 1.23978e-05 30.2841 0.0560124 30.6601 0.168012C31.0441 0.280012 31.3761 0.448012 31.6561 0.672012C31.9361 0.888012 32.1521 1.15201 32.3041 1.46401C32.4641 1.76801 32.5481 2.11601 32.5561 2.50801L30.7681 3.00001C30.7681 2.67201 30.6961 2.40401 30.5521 2.19601C30.4161 1.98801 30.2401 1.83201 30.0241 1.72801C29.8161 1.61601 29.5881 1.56001 29.3401 1.56001C29.1401 1.56001 28.9321 1.60401 28.7161 1.69201C28.5081 1.77201 28.3161 1.91201 28.1401 2.11201C27.9641 2.30401 27.8241 2.56001 27.7201 2.88001C27.6161 3.20001 27.5641 3.60001 27.5641 4.08001C27.5641 4.70401 27.6521 5.20801 27.8281 5.59201C28.0041 5.97601 28.2481 6.26001 28.5601 6.44401C28.8721 6.62001 29.2161 6.70801 29.5921 6.70801C30.0081 6.70801 30.3281 6.62001 30.5521 6.44401C30.7841 6.26001 30.9481 6.03201 31.0441 5.76001C31.1401 5.48801 31.1921 5.21201 31.2001 4.93201L32.8801 5.19601C32.8721 5.62801 32.8081 6.03201 32.6881 6.40801C32.5681 6.78401 32.3761 7.11201 32.1121 7.39201C31.8561 7.66401 31.5161 7.87601 31.0921 8.02801C30.6681 8.18001 30.1521 8.25601 29.5441 8.25601ZM39.1989 8.08801V0.168012H41.1309V8.08801H39.1989ZM34.0389 8.08801V0.168012H35.9709V8.08801H34.0389ZM35.2149 4.87201V3.31201H39.9789V4.87201H35.2149ZM42.1446 8.08801L44.8326 0.168012H47.6646L50.3526 8.08801H48.2406L46.3446 1.68001H46.1526L44.2566 8.08801H42.1446ZM43.7406 6.60001V5.30401H49.0446V6.60001H43.7406Z" fill="black"></path>
<path d="M51 5.80707C51 5.53093 51.2239 5.30707 51.5 5.30707H67.62V7.07707C67.62 7.62935 67.1723 8.07707 66.62 8.07707H51.5C51.2239 8.07707 51 7.85321 51 7.57707V5.80707Z" fill="#EE970B"></path>
<path d="M67.62 5.30707H83.74C84.0161 5.30707 84.24 5.53093 84.24 5.80707V7.57707C84.24 7.85321 84.0161 8.07707 83.74 8.07707H68.62C68.0677 8.07707 67.62 7.62935 67.62 7.07707V5.30707Z" fill="#EE970B"></path>
</svg>